<?xml version="1.0" encoding="utf-8"?>
<!-- Generator: Adobe Illustrator 27.0.1, SVG Export Plug-In . SVG Version: 6.00 Build 0)  -->
<svg version="1.1" id="Layer_1" xmlns="http://www.w3.org/2000/svg" xmlns:xlink="http://www.w3.org/1999/xlink" x="0px" y="0px"
	 viewBox="0 0 1366 768" style="enable-background:new 0 0 1366 768;" xml:space="preserve">
<style type="text/css">
	.st0{fill:#F87000;}
	.st1{fill:#F87000;stroke:#F1F1F1;stroke-width:40;stroke-linecap:round;stroke-linejoin:bevel;stroke-miterlimit:10;}
	.st2{fill:#F87000;stroke:#F87000;stroke-width:40;stroke-linecap:round;stroke-linejoin:bevel;stroke-miterlimit:10;}
</style>
<g>
	<path class="st0" d="M545.57,444.8l11.75,12.96v36.47h-1.66c-13.16,0-23.61-3.21-31.34-9.64c-7.74-6.43-13.21-16.88-16.43-31.34
		c-4.02,15.07-10.88,26.17-20.57,33.3c-9.7,7.13-21.38,10.7-35.04,10.7h-2.71c-10.75-0.3-19.46-3.84-26.15-10.62
		c-6.68-6.78-11.53-17.5-14.54-32.17c-4.12,14.57-10.85,25.34-20.19,32.32c-9.34,6.98-20.24,10.47-32.7,10.47h-2.71
		c-19.69-0.6-32.85-12.1-39.48-34.51c-3.22,33.25-15.4,58.64-36.54,76.17c-21.15,17.53-49.1,26.3-83.86,26.3
		c-31.75,0-55.98-7.26-72.71-21.78c-16.73-14.52-25.09-33.48-25.09-56.89c0-10.45,1.83-21.22,5.5-32.32
		c3.67-11.1,9.42-20.72,17.25-28.86c11.55,0,23.31,2.81,35.26,8.44c-4.22,6.23-7.53,13.03-9.95,20.42s-3.62,14.24-3.62,20.57
		c0,4.52,0.45,8.69,1.36,12.51c0.9,3.82,2.56,7.56,4.97,11.23c2.41,3.67,5.55,6.73,9.42,9.19c3.87,2.46,8.99,4.47,15.37,6.03
		c6.38,1.56,13.79,2.34,22.23,2.34c25.42,0,44.38-5.45,56.89-16.35s18.76-29.11,18.76-54.62c0-11.85-0.7-23.11-2.11-33.75
		c-1.41-10.65-3.92-24.16-7.53-40.54h45.66c5.42,20.7,8.54,39.83,9.34,57.41c2.61,13.16,11.25,19.74,25.92,19.74h0.6
		c9.14,0,15.85-2.91,20.12-8.74c4.27-5.83,6.4-15.87,6.4-30.14v-37.37h45.36v39.48c0,13.36,2.19,22.83,6.55,28.41
		c4.37,5.58,10.93,8.36,19.67,8.36h0.3c9.14,0,15.85-2.91,20.12-8.74c4.27-5.83,6.4-15.87,6.4-30.14V346.1h45.81v62.08
		c0,13.66,2.49,23.18,7.46,28.56c4.97,5.38,13.29,8.06,24.94,8.06H545.57z"/>
	<path class="st0" d="M644.27,444.8l11.75,12.96v36.47h-1.66c-11.15,0-20.22-3.39-27.2-10.17c-6.98-6.78-11.98-17.6-14.99-32.47
		c-4.12,14.57-10.98,25.32-20.57,32.25c-9.59,6.93-21.07,10.4-34.43,10.4h-2.71l-11.75-12.96V444.8h1.51
		c9.14,0,15.85-2.91,20.12-8.74c4.27-5.83,6.4-15.87,6.4-30.14V271.96h45.66v136.22c0,13.36,2.18,22.81,6.55,28.33
		c4.37,5.53,10.97,8.29,19.82,8.29H644.27z"/>
	<path class="st0" d="M662.05,346.1h45.66c5.22,26.92,7.84,50.18,7.84,69.77c0,26.42-5.3,46.09-15.9,59
		c-10.6,12.91-25.59,19.36-44.98,19.36h-1.51l-11.75-12.96V444.8h1.51c9.24,0,16.07-2.56,20.49-7.69
		c4.42-5.12,6.63-14.56,6.63-28.33C670.04,392.92,667.38,372.02,662.05,346.1z M681.19,517.44c11.45,8.84,21.45,18.58,29.99,29.23
		c-3.82,4.72-8.54,9.74-14.17,15.07c-5.63,5.32-10.9,9.89-15.82,13.71c-12.56-9.34-22.66-18.94-30.29-28.78
		C658.53,536.93,668.63,527.18,681.19,517.44z"/>
	<path class="st0" d="M1055.51,444.8l11.6,12.96v36.47h-1.51c-11.05,0-20.04-3.36-26.97-10.1c-6.93-6.73-11.9-17.58-14.92-32.55
		c-4.12,14.57-10.98,25.32-20.57,32.25c-9.59,6.93-21.07,10.4-34.43,10.4h-75.35c-14.67,0-27.68-2.01-39.03-6.03
		c-11.35-4.02-20.52-9.62-27.5-16.8c-6.98-7.18-12.23-15.39-15.75-24.64c-3.52-9.24-5.27-19.34-5.27-30.29
		c0-23.11,7.38-45.21,22.15-66.3c11.75-2.71,24.71-4.07,38.88-4.07c-4.22,9.04-8.04,19.82-11.45,32.32
		c-3.42,12.51-5.12,22.33-5.12,29.46c0,11.96,3.16,21.1,9.49,27.43s17.23,9.49,32.7,9.49h63.29c9.14,0,15.85-2.91,20.12-8.74
		c4.27-5.83,6.4-15.87,6.4-30.14v-35.11h45.66v37.37c0,13.36,2.16,22.81,6.48,28.33c4.32,5.53,10.8,8.29,19.44,8.29H1055.51z
		 M928.93,517.44c11.45,8.54,21.55,18.28,30.29,29.23c-4.12,4.92-8.99,10.04-14.62,15.37c-5.63,5.32-10.85,9.79-15.67,13.41
		c-12.56-9.75-22.55-19.34-29.99-28.78C905.27,538.23,915.26,528.49,928.93,517.44z"/>
	<path class="st0" d="M1113.67,517.44c11.45,8.84,21.45,18.58,29.99,29.23c-3.82,4.72-8.54,9.74-14.17,15.07
		c-5.63,5.32-10.9,9.89-15.82,13.71c-8.24-6.13-15.82-12.96-22.75-20.49c-7.74,8.04-15.37,14.87-22.91,20.49
		c-12.36-9.55-22.3-19.14-29.84-28.78c6.43-8.64,16.38-18.38,29.84-29.23c7.93,5.93,15.57,12.91,22.91,20.95
		C1097.75,531.05,1105.33,524.07,1113.67,517.44z M1067.11,494.23h-2.71l-11.75-12.96V444.8h1.51c9.14,0,15.85-2.91,20.12-8.74
		c4.27-5.83,6.4-15.87,6.4-30.14V346.1h45.66v71.28c0,26.32-5.4,45.71-16.2,58.17C1099.33,488,1084.99,494.23,1067.11,494.23z"/>
	<path class="st0" d="M1237.69,345.2c7.84,0,15.04,1.33,21.62,3.99c6.58,2.66,12.28,6.28,17.1,10.85
		c4.82,4.57,9.12,10.07,12.88,16.5c3.77,6.43,6.88,13.21,9.34,20.34c2.46,7.13,4.47,14.77,6.03,22.91
		c1.56,8.14,2.66,16.05,3.32,23.73c0.65,7.69,0.98,15.45,0.98,23.28c0,10.15-0.88,19.87-2.64,29.16
		c-1.76,9.29-4.92,18.53-9.49,27.73c-4.57,9.19-10.35,17.1-17.33,23.73c-6.98,6.63-16.12,12.03-27.43,16.2
		c-11.3,4.17-24.19,6.25-38.65,6.25c-17.18,0-32.3-1.86-45.36-5.58c-2.51-10.75-3.77-26.37-3.77-46.87
		c12.56,2.01,25.72,3.01,39.48,3.01c11.35,0,21.2-0.96,29.54-2.86c8.34-1.91,14.89-4.37,19.67-7.38c4.77-3.01,8.59-6.83,11.45-11.45
		c2.86-4.62,4.75-9.22,5.65-13.79c0.9-4.57,1.36-9.82,1.36-15.75c0-5.12-0.1-8.94-0.3-11.45c-7.13,6.53-15.7,11.58-25.69,15.14
		c-10,3.57-20.17,5.35-30.52,5.35c-7.84,0-15.2-1.03-22.08-3.09c-6.88-2.06-13.03-5.05-18.46-8.97s-9.7-9.09-12.81-15.52
		c-3.12-6.43-4.67-13.71-4.67-21.85c0-7.13,1.15-14.54,3.47-22.23c2.31-7.69,5.83-15.17,10.55-22.45
		c4.72-7.28,10.22-13.84,16.5-19.67c6.28-5.83,13.81-10.5,22.6-14.01C1218.83,346.96,1228.05,345.2,1237.69,345.2z M1237.99,446.46
		c9.24,0,19.74-1.36,31.49-4.07c-5.02-31.95-19.49-47.92-43.4-47.92c-9.85,0-17.56,2.84-23.13,8.51
		c-5.58,5.68-8.36,12.03-8.36,19.06c0,7.23,3.39,13.11,10.17,17.63C1211.55,444.2,1222.62,446.46,1237.99,446.46z"/>
</g>
<g>
	<line class="st1" x1="269.07" y1="342.66" x2="206.92" y2="342.66"/>
	<line class="st1" x1="206.92" y1="280.51" x2="206.92" y2="342.66"/>
</g>
<g>
	<line class="st2" x1="102.8" y1="385.06" x2="164.89" y2="382.43"/>
	<line class="st2" x1="167.53" y1="444.52" x2="164.89" y2="382.43"/>
</g>
</svg>
