<svg xmlns="http://www.w3.org/2000/svg" viewBox="0 0 504.22 296.84"><defs><style>.cls-1{fill:#fff;}</style></defs><g id="Layer_2" data-name="Layer 2"><g id="Layer_1-2" data-name="Layer 1"><g id="Layer_2-2" data-name="Layer 2"><g id="Layer_1-2-2" data-name="Layer 1-2"><path class="cls-1" d="M0,0V93.58c107.49,0,194.63,87.14,194.63,194.63,0,2.89-.07,5.76-.2,8.63h93.64c.09-2.87.14-5.75.13-8.63C288.2,129,159.17,0,0,0Z"/><path class="cls-1" d="M0,166.8v130H121.06c.2-2.85.31-5.73.31-8.63A121.37,121.37,0,0,0,0,166.8Z"/><path class="cls-1" d="M504.22,0V93.58c-107.49,0-194.63,87.14-194.63,194.63,0,2.89.08,5.77.2,8.63H216.15c-.08-2.87-.13-5.75-.13-8.63C216,129,345.05,0,504.22,0Z"/><path class="cls-1" d="M504.22,166.8v130h-121c-.2-2.85-.31-5.73-.31-8.63A121.36,121.36,0,0,1,504.22,166.8Z"/></g></g></g></g></svg>